<svg width="24" height="24" viewBox="0 0 24 24" fill="none" xmlns="http://www.w3.org/2000/svg">
<path fill-rule="evenodd" clip-rule="evenodd" d="M21 12C21 16.9706 16.9706 21 12 21C7.02943 21 3 16.9706 3 12C3 7.02944 7.02943 3 12 3C16.9706 3 21 7.02944 21 12ZM23 12C23 18.0751 18.0751 23 12 23C5.92487 23 1 18.0751 1 12C1 5.92487 5.92487 1 12 1C18.0751 1 23 5.92487 23 12ZM12.407 8.12021C11.8382 8.11176 11.0557 8.36076 10.2071 9.20931C9.8166 9.59984 9.18343 9.59985 8.7929 9.20933C8.40237 8.81881 8.40237 8.18564 8.79288 7.79511C9.94434 6.64363 11.2243 6.10242 12.4367 6.12043C13.6419 6.13834 14.6967 6.71374 15.3228 7.62009C15.9553 8.53573 16.1155 9.74051 15.6258 10.9126C15.1423 12.07 14.0718 13.1001 12.4199 13.8644C11.9187 14.0963 11.3243 13.878 11.0924 13.3768C10.8605 12.8755 11.0788 12.2812 11.5801 12.0493C12.9282 11.4256 13.5452 10.7047 13.7804 10.1417C14.0095 9.59323 13.9197 9.10784 13.6772 8.75683C13.4283 8.39653 12.9831 8.12877 12.407 8.12021ZM13 16.5022C13 17.0545 12.5523 17.5022 12 17.5022C11.4477 17.5022 11 17.0545 11 16.5022C11 15.9499 11.4477 15.5022 12 15.5022C12.5523 15.5022 13 15.9499 13 16.5022Z" fill="white"/>
</svg>
