<svg width="240" height="256" viewBox="0 0 240 256" fill="none" xmlns="http://www.w3.org/2000/svg">
<g filter="url(#filter0_d_355_15378)">
<path d="M154.722 108.492V190.879H61.9138L61.9138 108.492H154.722Z" fill="#FFC295"/>
<path d="M58.7775 108.842H158.271V119.172H58.7775V108.842Z" fill="#F07A55"/>
<path d="M177.828 87.2562C174.788 91.7055 168.218 105.346 157.112 108.919H58.5431C47.4375 105.346 40.867 91.7055 37.8273 87.2562V46.707H177.828V87.2562Z" fill="#FFC295"/>
<path d="M93.431 191H81.8517L81.8517 142.795C81.8517 139.202 84.4439 136.288 87.6413 136.288C90.8386 136.288 93.4308 139.202 93.4308 142.795L93.431 191Z" fill="#F07A55"/>
<path d="M115.698 191H103.228L103.228 142.795C103.228 139.202 106.02 136.288 109.463 136.288C112.906 136.288 115.698 139.202 115.698 142.795L115.698 191Z" fill="#F07A55"/>
<path d="M137.075 191H125.496V142.795C125.496 139.202 128.088 136.288 131.285 136.288C134.483 136.288 137.075 139.202 137.075 142.795L137.075 191Z" fill="#F07A55"/>
<path d="M93.7362 113.599H81.6565V106.472C81.6565 102.651 84.3606 99.5537 87.6962 99.5537C91.0317 99.5537 93.7359 102.651 93.7359 106.472L93.7362 113.599Z" fill="#F07A55"/>
<path d="M115.48 113.599H103.401V106.472C103.401 102.651 106.105 99.5537 109.44 99.5537C112.776 99.5537 115.48 102.651 115.48 106.472L115.48 113.599Z" fill="#F07A55"/>
<path d="M137.224 113.599H125.144L125.144 106.472C125.144 102.651 127.848 99.5537 131.184 99.5537C134.519 99.5537 137.224 102.651 137.224 106.472V113.599Z" fill="#F07A55"/>
<path d="M169.688 39.2969H47.9711C30.1167 39.2969 15.2344 53.2195 15.0028 70.7204C14.7674 88.5024 29.4012 102.99 47.4867 102.99C62.2299 102.99 74.6779 93.362 78.648 80.1704C79.6847 76.7257 82.844 74.3163 86.5075 74.3163H130.662C134.254 74.3163 137.476 76.6027 138.472 79.9864C142.506 93.6954 155.682 103.605 171.111 102.96C187.794 102.262 201.361 89.0185 202.139 72.6665C203.007 54.3856 188.145 39.2969 169.688 39.2969Z" fill="#FFE2CD"/>
<path d="M170.444 48.1826H48.6349C36.2586 48.1826 25.8928 58.1756 25.6582 70.805C25.418 83.7278 35.6477 94.3184 48.2557 94.3184C56.1663 94.3184 63.1371 90.1473 67.1748 83.8478C68.5861 81.646 67.0664 78.7245 64.4885 78.7245H64.4863C63.3997 78.7245 62.385 79.2816 61.7926 80.2114C58.6938 85.0728 53.1553 88.1714 46.9603 87.6753C39.0725 87.0439 32.7207 80.5146 32.1542 72.4601C31.4765 62.8301 38.9614 54.773 48.2557 54.773H170.141C178.957 54.773 186.375 61.8577 186.584 70.8533C186.798 80.1196 179.476 87.7271 170.444 87.7271C164.792 87.7271 159.812 84.745 156.928 80.243C156.326 79.3036 155.312 78.7245 154.212 78.7245C151.639 78.7245 150.111 81.6398 151.519 83.8381C155.763 90.465 163.251 94.7393 171.665 94.285C183.232 93.6606 192.569 83.9967 193.028 72.1842C193.539 59.0412 183.211 48.1826 170.444 48.1826Z" fill="#F07A55"/>
<path d="M146.632 62.0293H68.2619C66.6215 62.0293 65.2916 63.3238 65.2916 64.9205C65.2916 66.5172 66.6215 67.8117 68.2619 67.8117H146.632C148.272 67.8117 149.602 66.5172 149.602 64.9205C149.602 63.3238 148.272 62.0293 146.632 62.0293Z" fill="#FFC295"/>
<path d="M49.288 78.4845C53.9385 78.4845 57.7085 74.8148 57.7085 70.2881C57.7085 65.7614 53.9385 62.0918 49.288 62.0918C44.6374 62.0918 40.8674 65.7614 40.8674 70.2881C40.8674 74.8148 44.6374 78.4845 49.288 78.4845Z" fill="#FFC295"/>
<path d="M169.506 78.4903C174.157 78.4903 177.927 74.8207 177.927 70.294C177.927 65.7673 174.157 62.0977 169.506 62.0977C164.856 62.0977 161.086 65.7673 161.086 70.294C161.086 74.8207 164.856 78.4903 169.506 78.4903Z" fill="#FFC295"/>
<g filter="url(#filter1_d_355_15378)">
<path d="M191.226 99.2069C170.657 113.848 160.609 119.57 153.829 151.58C171.863 152.785 194.444 145.907 215.291 131.353C236.137 116.799 250.952 97.628 261.116 85.1063C243.171 83.6327 212.072 84.6529 191.226 99.2069Z" fill="#FFE2CD"/>
<path d="M145.51 165.404C144.669 165.163 143.828 164.922 143.434 164.219C142.281 163.003 142.581 161.026 144.116 159.992C144.116 159.992 164.294 136.08 180.34 124.17C196.241 112.367 231.124 97.3123 229.397 100.44C227.67 103.567 201.136 118.072 185.49 129.575C169.26 141.507 147.886 164.612 147.886 164.612C147.077 165.265 146.434 165.375 145.51 165.404Z" fill="#F07A55"/>
</g>
</g>
<defs>
<filter id="filter0_d_355_15378" x="-15" y="39" width="306.116" height="212" filterUnits="userSpaceOnUse" color-interpolation-filters="sRGB">
<feFlood flood-opacity="0" result="BackgroundImageFix"/>
<feColorMatrix in="SourceAlpha" type="matrix" values="0 0 0 0 0 0 0 0 0 0 0 0 0 0 0 0 0 0 127 0" result="hardAlpha"/>
<feOffset dy="30"/>
<feGaussianBlur stdDeviation="15"/>
<feComposite in2="hardAlpha" operator="out"/>
<feColorMatrix type="matrix" values="0 0 0 0 0.504167 0 0 0 0 0.1815 0 0 0 0 0 0 0 0 0.15 0"/>
<feBlend mode="normal" in2="BackgroundImageFix" result="effect1_dropShadow_355_15378"/>
<feBlend mode="normal" in="SourceGraphic" in2="effect1_dropShadow_355_15378" result="shape"/>
</filter>
<filter id="filter1_d_355_15378" x="53.9902" y="0.30337" width="295.869" height="258.281" filterUnits="userSpaceOnUse" color-interpolation-filters="sRGB">
<feFlood flood-opacity="0" result="BackgroundImageFix"/>
<feColorMatrix in="SourceAlpha" type="matrix" values="0 0 0 0 0 0 0 0 0 0 0 0 0 0 0 0 0 0 127 0" result="hardAlpha"/>
<feOffset dy="4.43716"/>
<feGaussianBlur stdDeviation="44.3716"/>
<feComposite in2="hardAlpha" operator="out"/>
<feColorMatrix type="matrix" values="0 0 0 0 0.847059 0 0 0 0 0.427451 0 0 0 0 0.298039 0 0 0 0.25 0"/>
<feBlend mode="normal" in2="BackgroundImageFix" result="effect1_dropShadow_355_15378"/>
<feBlend mode="normal" in="SourceGraphic" in2="effect1_dropShadow_355_15378" result="shape"/>
</filter>
</defs>
</svg>
