<svg width="229" height="233" viewBox="0 0 229 233" fill="none" xmlns="http://www.w3.org/2000/svg">
<g filter="url(#filter0_d_355_15188)">
<path d="M124 162C168.735 162 205 125.735 205 81C205 36.2649 168.735 0 124 0C79.2649 0 43 36.2649 43 81C43 125.735 79.2649 162 124 162Z" fill="#AFEDCC"/>
<path d="M92 175C126.242 175 154 147.242 154 113C154 78.7583 126.242 51 92 51C57.7583 51 30 78.7583 30 113C30 147.242 57.7583 175 92 175Z" fill="#AFEDCC"/>
<path d="M98 81C115.673 81 130 66.6731 130 49C130 31.3269 115.673 17 98 17C80.3269 17 66 31.3269 66 49C66 66.6731 80.3269 81 98 81Z" fill="#E3F9ED"/>
<path d="M154 135C171.673 135 186 120.897 186 103.5C186 86.103 171.673 72 154 72C136.327 72 122 86.103 122 103.5C122 120.897 136.327 135 154 135Z" fill="#E3F9ED"/>
<path d="M151.548 111.052C153.648 113.161 153.648 116.776 151.548 118.884L122.446 147.952C121.696 148.705 120.946 149.308 120.196 150.061C101.744 166.477 73.3923 165.724 55.691 147.952C37.9897 130.18 37.2397 101.714 53.5908 83.0385C54.1909 82.2855 54.9409 81.5324 55.691 80.7794L84.6431 51.7113C86.7432 49.6027 90.3435 49.6027 92.4436 51.7113L106.845 66.17C108.945 68.2786 108.945 71.8933 106.845 74.0018L80.5928 100.509C78.9427 102.166 77.5926 104.275 76.8425 106.383C74.8924 111.956 76.0925 118.432 80.5928 122.8C85.0931 127.318 91.3936 128.523 96.944 126.565C99.0441 125.812 101.144 124.607 102.794 122.8L129.196 96.443C131.296 94.3344 134.897 94.3344 136.997 96.443L151.548 111.052Z" fill="#20CE70"/>
<path d="M98.1199 83.2036L75.7683 60.7624L84.619 51.8763C86.7191 49.7678 90.3194 49.7678 92.4195 51.8763L106.821 66.3351C108.921 68.4436 108.921 72.0583 106.821 74.1669L98.1199 83.2036Z" fill="#22AC62"/>
<path d="M142.673 127.935L120.321 105.494L129.172 96.6078C131.272 94.4992 134.872 94.4992 136.973 96.6078L151.374 111.067C153.474 113.175 153.474 116.79 151.374 118.898L142.673 127.935Z" fill="#22AC62"/>
<path d="M166.899 86.3832L156.919 90.7668C154.892 91.5496 152.709 90.7668 151.773 88.7315C150.993 86.6963 151.773 84.5044 153.8 83.5651L163.78 79.1814C165.807 78.3987 167.99 79.1814 168.926 81.2167C169.705 83.252 168.926 85.6004 166.899 86.3832Z" fill="#22AC62"/>
<path d="M164.248 96.0902L154.268 100.474C152.241 101.257 150.058 100.474 149.123 98.4386C148.343 96.4033 149.123 94.2115 151.15 93.2721L161.13 88.8885C163.157 88.1057 165.34 88.8885 166.275 90.9237C167.211 92.959 166.275 95.1508 164.248 96.0902Z" fill="#22AC62"/>
<path d="M120.355 42.3128L110.375 46.6965C108.348 47.4793 106.165 46.6965 105.229 44.6612C104.45 42.626 105.229 40.4341 107.256 39.4948L117.236 35.1111C119.263 34.3283 121.446 35.1111 122.382 37.1464C123.162 39.1817 122.382 41.53 120.355 42.3128Z" fill="#22AC62"/>
<path d="M117.704 52.0228L107.724 56.4064C105.697 57.1892 103.514 56.4064 102.578 54.3712C101.799 52.3359 102.578 50.1441 104.605 49.2047L114.585 44.8211C116.612 44.0383 118.795 44.8211 119.731 46.8564C120.667 48.8916 119.731 51.0834 117.704 52.0228Z" fill="#22AC62"/>
<path d="M141.014 39.7296C144.028 39.7296 146.472 37.2763 146.472 34.2501C146.472 31.2238 144.028 28.7705 141.014 28.7705C138 28.7705 135.556 31.2238 135.556 34.2501C135.556 37.2763 138 39.7296 141.014 39.7296Z" fill="#22AC62"/>
<path d="M160.506 36.5953C162.228 36.5953 163.624 35.1935 163.624 33.4642C163.624 31.7349 162.228 30.333 160.506 30.333C158.783 30.333 157.387 31.7349 157.387 33.4642C157.387 35.1935 158.783 36.5953 160.506 36.5953Z" fill="#22AC62"/>
<path d="M160.506 63.2125C164.812 63.2125 168.303 59.7078 168.303 55.3846C168.303 51.0613 164.812 47.5566 160.506 47.5566C156.2 47.5566 152.709 51.0613 152.709 55.3846C152.709 59.7078 156.2 63.2125 160.506 63.2125Z" fill="#22AC62"/>
</g>
<defs>
<filter id="filter0_d_355_15188" x="0" y="0" width="235" height="235" filterUnits="userSpaceOnUse" color-interpolation-filters="sRGB">
<feFlood flood-opacity="0" result="BackgroundImageFix"/>
<feColorMatrix in="SourceAlpha" type="matrix" values="0 0 0 0 0 0 0 0 0 0 0 0 0 0 0 0 0 0 127 0" result="hardAlpha"/>
<feOffset dy="30"/>
<feGaussianBlur stdDeviation="15"/>
<feComposite in2="hardAlpha" operator="out"/>
<feColorMatrix type="matrix" values="0 0 0 0 0 0 0 0 0 0.3125 0 0 0 0 0.03125 0 0 0 0.15 0"/>
<feBlend mode="normal" in2="BackgroundImageFix" result="effect1_dropShadow_355_15188"/>
<feBlend mode="normal" in="SourceGraphic" in2="effect1_dropShadow_355_15188" result="shape"/>
</filter>
</defs>
</svg>
