<svg width="240" height="211" viewBox="0 0 240 211" fill="none" xmlns="http://www.w3.org/2000/svg">
<g filter="url(#filter0_d_355_15245)">
<path d="M227.682 84.0469H190.671V151H227.682V84.0469Z" fill="#C5B3ED"/>
<path d="M214.728 103.99H219.141C219.853 103.99 220.422 103.42 220.422 102.708V94.0184C220.422 93.3061 219.853 92.7363 219.141 92.7363H214.728C214.016 92.7363 213.447 93.3061 213.447 94.0184V102.708C213.447 103.42 214.016 103.99 214.728 103.99Z" fill="#5A46A8"/>
<path d="M199.069 103.99H203.482C204.194 103.99 204.763 103.42 204.763 102.708V94.0184C204.763 93.3061 204.194 92.7363 203.482 92.7363H199.069C198.358 92.7363 197.788 93.3061 197.788 94.0184V102.708C197.788 103.42 198.358 103.99 199.069 103.99Z" fill="#5A46A8"/>
<path d="M227.682 128.207H190.671V151H227.682V128.207Z" fill="#E5DCF8"/>
<path d="M227.682 112.537H190.671V135.33H227.682V112.537Z" fill="#E5DCF8"/>
<path d="M213.447 22.7923C213.447 22.2225 209.176 22.7923 209.176 22.7923C209.176 22.7923 204.906 22.2225 204.906 22.7923L199.212 55.5565H209.176H219.141L213.447 22.7923Z" fill="#C5B3ED"/>
<path d="M200.493 48.4336L199.212 55.5562H209.176H219.141L217.86 48.4336H200.493Z" fill="#E5DCF8"/>
<path d="M222.273 56.9812C222.131 56.1265 221.419 55.5566 220.565 55.5566H209.176H197.788C196.934 55.5566 196.222 56.1265 196.08 56.9812L190.671 84.0472H209.176H227.682L222.273 56.9812Z" fill="#C5B3ED"/>
<path d="M209.176 14.2449C212.321 14.2449 214.871 11.6937 214.871 8.54675C214.871 5.39977 212.321 2.84863 209.176 2.84863C206.032 2.84863 203.482 5.39977 203.482 8.54675C203.482 11.6937 206.032 14.2449 209.176 14.2449Z" fill="#E5DCF8"/>
<path d="M212.024 11.3955H206.329V22.7917H212.024V11.3955Z" fill="#E5DCF8"/>
<path d="M214.871 21.3673V18.5183C214.871 17.806 214.301 17.0938 213.447 17.0938H204.906C204.194 17.0938 203.482 17.6636 203.482 18.5183V21.3673C203.482 22.0796 204.052 22.7919 204.906 22.7919H213.589C214.301 22.7919 214.871 22.2221 214.871 21.3673Z" fill="#E5DCF8"/>
<path d="M190.813 73.79L177.859 62.6787L165.047 73.79C161.488 76.3542 159.353 80.058 159.353 84.0466C159.353 91.8815 167.609 98.2919 177.859 98.2919C188.108 98.2919 196.365 91.8815 196.365 84.0466C196.365 80.058 194.229 76.4966 190.813 73.79Z" fill="#C5B3ED"/>
<path d="M190.671 94.0186H165.047C164.335 94.0186 163.624 94.5884 163.624 95.4431V101.141C163.624 101.853 164.193 102.566 165.047 102.566H190.671C191.382 102.566 192.094 101.996 192.094 101.141V95.4431C192.094 94.5884 191.525 94.0186 190.671 94.0186Z" fill="#E5DCF8"/>
<path d="M190.671 102.565H165.047V128.207H190.671V102.565Z" fill="#5A46A8"/>
<path d="M177.859 116.811C174.727 116.811 172.165 119.375 172.165 122.509V150.999H183.553V122.509C183.553 119.375 180.991 116.811 177.859 116.811Z" fill="#5A46A8"/>
<path d="M189.247 116.811C186.115 116.811 183.553 119.375 183.553 122.509V150.999H194.941V122.509C194.941 119.375 192.379 116.811 189.247 116.811Z" fill="#5A46A8"/>
<path d="M166.471 116.811C163.339 116.811 160.776 119.375 160.776 122.509V150.999H172.165V122.509C172.165 119.375 169.602 116.811 166.471 116.811Z" fill="#5A46A8"/>
<path d="M194.941 129.632H160.776V151H194.941V129.632Z" fill="#C5B3ED"/>
<path d="M165.047 73.7901C163.339 75.0722 161.915 76.6391 160.919 78.3486H194.799C193.802 76.6391 192.379 75.0722 190.813 73.7901L186.969 70.5137H168.891L165.047 73.7901Z" fill="#5A46A8"/>
<path d="M159.638 86.1836C160.207 89.1751 162.058 91.8817 164.762 94.0185H191.24C193.945 91.8817 195.653 89.1751 196.365 86.1836H159.638Z" fill="#5A46A8"/>
<path d="M253.448 73.79L240.494 62.6787L227.682 73.79C224.124 76.3542 221.988 80.058 221.988 84.0466C221.988 91.8815 230.245 98.2919 240.494 98.2919C250.744 98.2919 259 91.8815 259 84.0466C259 80.058 256.865 76.4966 253.448 73.79Z" fill="#C5B3ED"/>
<path d="M231.241 96.4403V70.7988L227.682 73.7903C224.124 76.3545 221.988 80.0583 221.988 84.0469C221.988 89.3177 225.689 93.8762 231.241 96.4403Z" fill="#5A46A8"/>
<path d="M253.306 94.0186H227.682C226.971 94.0186 226.259 94.5884 226.259 95.4431V101.141C226.259 101.853 226.828 102.566 227.682 102.566H253.306C254.018 102.566 254.729 101.996 254.729 101.141V95.4431C254.729 94.5884 254.16 94.0186 253.306 94.0186Z" fill="#E5DCF8"/>
<path d="M253.306 102.565H227.682V128.207H253.306V102.565Z" fill="#C5B3ED"/>
<path d="M240.494 116.811C237.362 116.811 234.8 119.375 234.8 122.509V150.999H246.188V122.509C246.188 119.375 243.626 116.811 240.494 116.811Z" fill="#5A46A8"/>
<path d="M229.106 116.811C225.974 116.811 223.412 119.375 223.412 122.509V150.999H234.8V122.509C234.8 119.375 232.238 116.811 229.106 116.811Z" fill="#5A46A8"/>
<path d="M257.576 129.632H223.412V151H257.576V129.632Z" fill="#C5B3ED"/>
<path d="M32.6588 0C23.9753 0 17 6.98019 17 15.6698V34.1887H48.3176V15.6698C48.3176 6.98019 41.3424 0 32.6588 0Z" fill="#C5B3ED"/>
<path d="M160.776 0H32.6588C41.3423 0 48.3176 6.98019 48.3176 15.6698V116.811V135.33C48.3176 143.877 55.2929 150.858 63.8341 151H63.9765H176.435V34.1887V15.6698C176.435 6.98019 169.46 0 160.776 0Z" fill="#E5DCF8"/>
<path d="M176.435 116.812H79.6353V135.33C79.6353 144.02 72.66 151 63.9764 151H192.094C200.778 151 207.753 144.02 207.753 135.33V116.812H176.435Z" fill="#C5B3ED"/>
<path d="M109.529 54.1316H106.825C105.828 54.1316 104.974 53.5618 104.689 52.5646L94.0129 20.6552C93.8706 20.2279 93.7282 19.658 93.7282 19.0882V15.6694H96.5753C97.4294 15.6694 97.9988 15.0996 97.9988 14.2448C97.9988 13.3901 97.4294 12.8203 96.5753 12.8203H79.6353C78.7812 12.8203 78.2118 13.3901 78.2118 14.2448C78.2118 15.0996 78.7812 15.6694 79.6353 15.6694H82.4824V19.943L66.9659 43.7326C63.9765 48.4335 65.8271 54.7014 70.9518 56.8382C75.08 58.5477 79.92 56.9807 82.0553 52.992L89.3153 40.3137L93.8706 54.1316H91.0235C90.1694 54.1316 89.6 54.7014 89.6 55.5562C89.6 56.4109 90.1694 56.9807 91.0235 56.9807H109.529C110.384 56.9807 110.953 56.4109 110.953 55.5562C110.953 54.7014 110.384 54.1316 109.529 54.1316ZM80.4894 47.5788C79.2082 49.7156 76.5035 50.4279 74.3682 49.4307C71.9482 48.1486 70.9518 45.0146 72.5177 42.7354L84.0482 24.6439L87.7494 35.6128L80.4894 47.5788Z" fill="#5A46A8"/>
<path d="M128.035 44.16H112.377C111.665 44.16 110.953 43.5902 110.953 42.7355V39.8864C110.953 39.1742 111.522 38.4619 112.377 38.4619H128.035C128.747 38.4619 129.459 39.0317 129.459 39.8864V42.7355C129.459 43.5902 128.889 44.16 128.035 44.16Z" fill="#5A46A8"/>
<path d="M162.058 28.4902H138.142C137.288 28.4902 136.576 29.2025 136.576 30.0572V32.7638C136.576 38.177 140.989 42.5931 146.399 42.5931H147.965L143.125 44.16C138.427 45.727 135.153 50.1431 135.153 55.2714C135.153 56.1261 135.865 56.8384 136.719 56.8384H143.552C144.406 56.8384 145.118 56.1261 145.118 55.2714V53.1346C145.118 50.1431 146.826 47.5789 149.531 46.4393L155.082 44.16V55.4138C155.082 56.2685 155.794 56.9808 156.648 56.9808H161.915C162.769 56.9808 163.481 56.2685 163.481 55.4138V30.0572C163.624 29.2025 162.912 28.4902 162.058 28.4902ZM155.082 38.8893C155.082 39.4591 154.655 39.8865 154.086 39.8865H152.52C149.246 39.8865 146.684 37.1799 146.684 34.0459V32.4789C146.684 31.9091 147.111 31.4817 147.68 31.4817H154.228C154.798 31.4817 155.225 31.9091 155.225 32.4789V38.8893H155.082Z" fill="#5A46A8"/>
<path d="M159.353 79.7732H68.2471C65.1153 79.7732 62.553 77.209 62.553 74.0751C62.553 70.9411 65.1153 68.377 68.2471 68.377H159.353C162.485 68.377 165.047 70.9411 165.047 74.0751C165.047 77.209 162.485 79.7732 159.353 79.7732Z" fill="#5A46A8"/>
<path d="M162.2 94.0184H65.4C63.8342 94.0184 62.553 92.7364 62.553 91.1694C62.553 89.6024 63.8342 88.3203 65.4 88.3203H162.2C163.766 88.3203 165.047 89.6024 165.047 91.1694C165.047 92.7364 163.766 94.0184 162.2 94.0184Z" fill="#C5B3ED"/>
<path d="M162.2 105.415H65.4C63.8342 105.415 62.553 104.133 62.553 102.566C62.553 100.999 63.8342 99.7168 65.4 99.7168H162.2C163.766 99.7168 165.047 100.999 165.047 102.566C165.047 104.133 163.766 105.415 162.2 105.415Z" fill="#C5B3ED"/>
</g>
<defs>
<filter id="filter0_d_355_15245" x="-13" y="0" width="302" height="211" filterUnits="userSpaceOnUse" color-interpolation-filters="sRGB">
<feFlood flood-opacity="0" result="BackgroundImageFix"/>
<feColorMatrix in="SourceAlpha" type="matrix" values="0 0 0 0 0 0 0 0 0 0 0 0 0 0 0 0 0 0 127 0" result="hardAlpha"/>
<feOffset dy="30"/>
<feGaussianBlur stdDeviation="15"/>
<feComposite in2="hardAlpha" operator="out"/>
<feColorMatrix type="matrix" values="0 0 0 0 0.155833 0 0 0 0 0 0 0 0 0 0.354167 0 0 0 0.15 0"/>
<feBlend mode="normal" in2="BackgroundImageFix" result="effect1_dropShadow_355_15245"/>
<feBlend mode="normal" in="SourceGraphic" in2="effect1_dropShadow_355_15245" result="shape"/>
</filter>
</defs>
</svg>
