<svg width="240" height="241" viewBox="0 0 240 241" fill="none" xmlns="http://www.w3.org/2000/svg">
<g filter="url(#filter0_d_355_15322)">
<path d="M124.057 90.0145C124.057 91.5636 122.815 92.8197 121.284 92.8199C119.753 92.8199 118.511 91.5636 118.511 90.0145C118.512 88.4654 119.753 87.2082 121.284 87.208C122.815 87.208 124.056 88.4651 124.057 90.0145Z" fill="#22AC62"/>
<path d="M216.727 86.3723C216.729 95.2053 209.564 102.368 200.727 102.369C191.891 102.369 184.725 95.2053 184.727 86.3723C184.729 77.5392 191.895 70.3702 200.727 70.3691C209.56 70.3691 216.725 77.5371 216.727 86.3723Z" fill="#20CE70"/>
<path d="M132.977 17.0591C132.978 21.7063 129.253 25.4747 124.659 25.4753C120.065 25.4753 116.339 21.7063 116.341 17.0591C116.342 12.4119 120.067 8.6402 124.659 8.63965C129.251 8.63965 132.976 12.4108 132.977 17.0591Z" fill="#AFEDCC"/>
<path d="M68.3637 63.3621C68.3666 75.7545 58.4328 85.8037 46.1819 85.8052C33.9309 85.8052 23.9971 75.7545 24 63.3621C24.0029 50.9696 33.9367 40.9116 46.1819 40.9102C58.4271 40.9102 68.3609 50.9667 68.3637 63.3621Z" fill="#AFEDCC"/>
<path d="M193.098 162.167L146.991 76.2188V57.2334H103.172V76.2159L57.0634 162.167C51.7798 172.016 58.8257 184 69.8997 184H180.261C191.335 184 198.381 172.016 193.098 162.167Z" fill="#AFEDCC"/>
<path d="M180.262 183.998H69.8999C58.8245 183.998 51.7791 172.015 57.0632 162.168L80.6643 118.178C83.2536 117.171 85.9579 116.434 88.7626 115.998C101.379 114.037 115.795 122.407 124.262 127.323C132.724 132.234 147.145 140.604 159.762 138.642C165.96 137.678 171.666 135.257 176.734 131.663L193.098 162.168C198.382 172.015 191.337 183.998 180.262 183.998Z" fill="#22AC62"/>
<path d="M180.262 183.998H69.8999C58.8245 183.998 51.7791 172.015 57.0632 162.168L72.9871 132.486C77.7494 135.63 83.0478 137.756 88.7626 138.642C101.379 140.604 115.795 132.234 124.262 127.323C132.724 122.407 147.145 114.037 159.762 115.998C163.342 116.555 166.76 117.597 169.981 119.074L193.098 162.168C198.382 172.015 191.337 183.998 180.262 183.998Z" fill="#20CE70"/>
<path d="M146.965 144.6C148.947 144.6 150.554 142.974 150.554 140.968C150.554 138.961 148.947 137.335 146.965 137.335C144.982 137.335 143.375 138.961 143.375 140.968C143.375 142.974 144.982 144.6 146.965 144.6Z" fill="#E3F9ED"/>
<path d="M163.435 167.475C165.417 167.475 167.024 165.849 167.024 163.843C167.024 161.836 165.417 160.21 163.435 160.21C161.452 160.21 159.845 161.836 159.845 163.843C159.845 165.849 161.452 167.475 163.435 167.475Z" fill="#AFEDCC"/>
<path d="M109.45 160.155C111.432 160.155 113.039 158.529 113.039 156.522C113.039 154.516 111.432 152.89 109.45 152.89C107.467 152.89 105.86 154.516 105.86 156.522C105.86 158.529 107.467 160.155 109.45 160.155Z" fill="#AFEDCC"/>
<path d="M81.9996 166.56C83.9821 166.56 85.5893 164.934 85.5893 162.928C85.5893 160.921 83.9821 159.295 81.9996 159.295C80.0171 159.295 78.4099 160.921 78.4099 162.928C78.4099 164.934 80.0171 166.56 81.9996 166.56Z" fill="#22AC62"/>
<path d="M44.5004 136C43.5507 136 42.6018 135.638 41.8769 134.914L34.0867 127.123C32.6378 125.674 32.6378 123.325 34.0867 121.877L41.8769 114.086C43.3259 112.638 45.6741 112.638 47.1231 114.086L54.9133 121.877C56.3622 123.326 56.3622 125.675 54.9133 127.123L47.1231 134.914C46.399 135.638 45.45 136 44.5004 136Z" fill="#AFEDCC"/>
<path d="M184 48C183.34 48 182.68 47.7481 182.175 47.2444L176.756 41.8248C175.748 40.8168 175.748 39.1827 176.756 38.1752L182.175 32.7556C183.183 31.7481 184.817 31.7481 185.825 32.7556L191.244 38.1752C192.252 39.1832 192.252 40.8173 191.244 41.8248L185.825 47.2444C185.321 47.7476 184.66 48 184 48Z" fill="#AFEDCC"/>
<rect x="93" y="45" width="64" height="13" rx="6.5" fill="#AFEDCC"/>
</g>
<defs>
<filter id="filter0_d_355_15322" x="-6" y="8.63965" width="252.727" height="235.36" filterUnits="userSpaceOnUse" color-interpolation-filters="sRGB">
<feFlood flood-opacity="0" result="BackgroundImageFix"/>
<feColorMatrix in="SourceAlpha" type="matrix" values="0 0 0 0 0 0 0 0 0 0 0 0 0 0 0 0 0 0 127 0" result="hardAlpha"/>
<feOffset dy="30"/>
<feGaussianBlur stdDeviation="15"/>
<feComposite in2="hardAlpha" operator="out"/>
<feColorMatrix type="matrix" values="0 0 0 0 0 0 0 0 0 0.3125 0 0 0 0 0.03125 0 0 0 0.15 0"/>
<feBlend mode="normal" in2="BackgroundImageFix" result="effect1_dropShadow_355_15322"/>
<feBlend mode="normal" in="SourceGraphic" in2="effect1_dropShadow_355_15322" result="shape"/>
</filter>
</defs>
</svg>
