<svg width="24" height="24" viewBox="0 0 24 24" fill="none" xmlns="http://www.w3.org/2000/svg">
<path fill-rule="evenodd" clip-rule="evenodd" d="M6.3577 4.35609C6.58271 4.12465 6.88179 4 7.1875 4H18V14H7.1875C6.74419 14 6.34849 14.0765 6 14.2116V5.25C6 4.90953 6.13176 4.58848 6.3577 4.35609ZM6 17.5C6 17.1376 6.09558 16.7235 6.29099 16.4327C6.45235 16.1925 6.6964 16 7.1875 16H18V19H7.1875C6.88179 19 6.58271 18.8754 6.3577 18.6439C6.13176 18.4115 6 18.0905 6 17.75V17.5ZM20 15V3C20 2.44772 19.5523 2 19 2H7.1875C6.33289 2 5.51917 2.34946 4.92371 2.96193C4.32918 3.57345 4 4.39699 4 5.25V17.5V17.75C4 18.603 4.32918 19.4266 4.92371 20.0381C5.51917 20.6505 6.33289 21 7.1875 21H19C19.5523 21 20 20.5523 20 20V15Z" fill="#8596AA"/>
</svg>
