<svg width="24" height="24" viewBox="0 0 24 24" fill="none" xmlns="http://www.w3.org/2000/svg">
<path fill-rule="evenodd" clip-rule="evenodd" d="M14 4C14 4.55228 13.5523 5 13 5H5C4.73478 5 4.48043 5.10536 4.29289 5.29289C4.10536 5.48043 4 5.73478 4 6V18C4 18.2652 4.10536 18.5196 4.29289 18.7071C4.48043 18.8946 4.73478 19 5 19H13C13.5523 19 14 19.4477 14 20C14 20.5523 13.5523 21 13 21H5C4.20435 21 3.44129 20.6839 2.87868 20.1213C2.31607 19.5587 2 18.7957 2 18V6C2 5.20435 2.31607 4.44129 2.87868 3.87868C3.44129 3.31607 4.20435 3 5 3H13C13.5523 3 14 3.44772 14 4ZM22.7071 12.7071L18.7071 16.7071C18.3166 17.0976 17.6834 17.0976 17.2929 16.7071C16.9024 16.3166 16.9024 15.6834 17.2929 15.2929L19.5858 13H9C8.44771 13 8 12.5523 8 12C8 11.4477 8.44771 11 9 11H19.5858L17.2929 8.70711C16.9024 8.31658 16.9024 7.68342 17.2929 7.29289C17.6834 6.90237 18.3166 6.90237 18.7071 7.29289L22.7071 11.2929C22.9 11.4858 22.9976 11.7379 23 11.9908C23 11.9938 23 11.9969 23 12M22.7071 12.7071C22.803 12.6112 22.8753 12.5007 22.9241 12.3828L22.7071 12.7071ZM23 12.0092C22.9988 12.1415 22.9719 12.2676 22.9241 12.3828L23 12.0092Z" fill="#8596AA"/>
</svg>
