<svg width="24" height="24" viewBox="0 0 24 24" fill="none" xmlns="http://www.w3.org/2000/svg">
<path d="M21.7438 7.74172L12.9211 1.76115C12.8096 1.64928 12.6771 1.56051 12.5312 1.49995C12.3854 1.43938 12.229 1.4082 12.0711 1.4082C11.9131 1.4082 11.7567 1.43938 11.6109 1.49995C11.465 1.56051 11.3326 1.64928 11.2211 1.76115L2.35 7.74172C2.12786 7.96917 2.00243 8.2738 2 8.59172L2.03125 20C2.03125 21 3.03125 22 4.03126 22H8.03125C9.13582 22 10.0312 21.1055 10.0312 20.0009C10.0312 18.2485 10.0312 16 10.0312 16H14.0312V20C14.0312 21.1046 14.9266 22 16.0312 22C17.8764 22 19.8114 22 20.0313 22C21.0312 22 22.0312 21 22.0312 20C22.0312 19 22.0312 8.625 22.0312 8.625C22.0288 8.30708 21.9659 7.96917 21.7438 7.74172ZM20.0313 19.9999L16 20L16.0208 16.0104C16.0266 14.9018 15.1295 14 14.0208 14L10.0313 14C8.92669 14 8.03125 14.8954 8.03125 16V19.9999L4.03126 20V8.99998L12.0313 3.79172L20.0313 8.99995V19.9999Z" fill="#8596AA"/>
</svg>
