<svg width="24" height="24" viewBox="0 0 24 24" fill="none" xmlns="http://www.w3.org/2000/svg">
<path fill-rule="evenodd" clip-rule="evenodd" d="M11.6984 2.65527C12.9958 1.54326 15 2.46508 15 4.17379V19.8253C15 21.5341 12.9958 22.4559 11.6984 21.3439L6.63008 16.9996H4.41421C3.88378 16.9996 3.37507 16.7889 3 16.4138L2.58579 15.9996C2.21071 15.6245 2 15.1158 2 14.5854V9.41378C2 8.88335 2.21071 8.37464 2.58579 7.99957L3 7.58535C3.37507 7.21028 3.88378 6.99957 4.41421 6.99957H6.63008L11.6984 2.65527ZM13 4.17379L7.93166 8.51808C7.56917 8.82878 7.1075 8.99957 6.63008 8.99957L4 8.99957V14.9996H6.63008C7.1075 14.9996 7.56917 15.1703 7.93166 15.4811L13 19.8253V4.17379ZM19.4453 5.16751C19.9048 4.86116 20.5257 4.98534 20.8321 5.44486C21.9025 7.05053 22.7344 8.96797 22.8731 11.1872C23.0123 13.415 22.4476 15.8639 20.8575 18.5141C20.5733 18.9876 19.9591 19.1412 19.4855 18.8571C19.0119 18.5729 18.8584 17.9586 19.1425 17.4851C20.5524 15.1352 20.9877 13.0842 20.8769 11.3119C20.7656 9.53116 20.0975 7.9486 19.1679 6.55427C18.8616 6.09474 18.9858 5.47387 19.4453 5.16751ZM16.5875 7.08861C17.0906 6.86079 17.6831 7.08395 17.911 7.58706C18.6287 9.17204 19.0316 10.5198 19.03 11.9402C19.0283 13.3545 18.6253 14.7376 17.9198 16.3918C17.7032 16.8999 17.1157 17.1361 16.6077 16.9194C16.0997 16.7028 15.8635 16.1153 16.0802 15.6073C16.7423 14.0547 17.0288 12.9605 17.03 11.9378C17.0312 10.9212 16.7503 9.87239 16.089 8.41207C15.8612 7.90896 16.0844 7.31643 16.5875 7.08861Z" fill="#8596AA"/>
</svg>
