<svg width="24" height="24" viewBox="0 0 24 24" fill="none" xmlns="http://www.w3.org/2000/svg">
<path fill-rule="evenodd" clip-rule="evenodd" d="M13.9751 13.7493C14.3662 13.5847 14.7863 13.5 15.2107 13.5C15.635 13.5 16.0551 13.5847 16.4463 13.7493C16.6408 13.8311 16.8262 13.9318 17 14.0497C17.1738 13.9318 17.3592 13.8311 17.5537 13.7493C17.9449 13.5848 18.3649 13.5 18.7893 13.5C19.2136 13.5 19.6337 13.5848 20.0249 13.7493C20.4161 13.9138 20.7704 14.1548 21.0672 14.4581C21.6651 15.069 22 15.8899 22 16.7447C22 17.5996 21.6651 18.4205 21.0671 19.0315L21.065 19.0337L18.9522 21.179C18.9518 21.1794 18.9513 21.1798 18.9509 21.1802C18.6968 21.4395 18.3936 21.6456 18.0589 21.7864C17.7237 21.9274 17.3637 22 17 22C16.6363 22 16.2763 21.9274 15.9411 21.7864C15.6064 21.6456 15.3031 21.4395 15.049 21.1802C15.0486 21.1798 15.0482 21.1794 15.0478 21.179L12.9328 19.0314C12.3349 18.4205 12 17.5996 12 16.7447C12 15.8898 12.3348 15.069 12.9328 14.4581M19.6377 15.8569C19.5272 15.7439 19.3952 15.6541 19.2495 15.5929C19.1038 15.5316 18.9473 15.5 18.7893 15.5C18.6312 15.5 18.4748 15.5316 18.3291 15.5929C18.1834 15.6541 18.0514 15.7439 17.9408 15.8569L17.2296 15.1609L17.9386 15.8592L17.7125 16.0888C17.5245 16.2796 17.2678 16.3871 17 16.3871C16.7321 16.3871 16.4755 16.2796 16.2875 16.0888L16.0591 15.8568C15.9486 15.7439 15.8166 15.6541 15.6709 15.5928C15.5252 15.5316 15.3687 15.5 15.2107 15.5C15.0526 15.5 14.8962 15.5316 14.7505 15.5928C14.6048 15.6541 14.4728 15.7439 14.3622 15.8568C14.1301 16.094 14 16.4128 14 16.7447C14 17.0761 14.1297 17.3944 14.3612 17.6315C14.3615 17.6318 14.3618 17.6321 14.3622 17.6325L16.4773 19.7802C16.5454 19.8498 16.6267 19.9051 16.7165 19.9428C16.8062 19.9806 16.9026 20 17 20C17.0974 20 17.1938 19.9806 17.2835 19.9428C17.3733 19.9051 17.4546 19.8498 17.5227 19.7802L17.525 19.7779L19.6378 17.6325C19.6381 17.6322 19.6385 17.6319 19.6388 17.6315C19.8703 17.3944 20 17.0762 20 16.7447C20 16.4128 19.8699 16.0941 19.6377 15.8569ZM13.9751 13.7493C13.584 13.9138 13.2295 14.1548 12.9328 14.4581L13.9751 13.7493Z" fill="#8596AA"/>
<path fill-rule="evenodd" clip-rule="evenodd" d="M3.46447 15.4645C4.40215 14.5268 5.67392 14 7 14H10C10.5523 14 11 14.4477 11 15C11 15.5523 10.5523 16 10 16H7C6.20435 16 5.44129 16.3161 4.87868 16.8787C4.31607 17.4413 4 18.2044 4 19V20C4 20.5523 3.55228 21 3 21C2.44772 21 2 20.5523 2 20V19C2 17.6739 2.52678 16.4021 3.46447 15.4645Z" fill="#8596AA"/>
<path fill-rule="evenodd" clip-rule="evenodd" d="M11 4C9.34315 4 8 5.34315 8 7C8 8.65685 9.34315 10 11 10C12.6569 10 14 8.65685 14 7C14 5.34315 12.6569 4 11 4ZM6 7C6 4.23858 8.23858 2 11 2C13.7614 2 16 4.23858 16 7C16 9.76142 13.7614 12 11 12C8.23858 12 6 9.76142 6 7Z" fill="#8596AA"/>
</svg>
