<svg width="24" height="24" viewBox="0 0 24 24" fill="none" xmlns="http://www.w3.org/2000/svg">
<path fill-rule="evenodd" clip-rule="evenodd" d="M4.99008 5.96899H7.02002V6C7.02002 7.10457 7.91545 8 9.02002 8H15.02C16.1246 8 17.02 7.10457 17.02 6L19.0201 5.99999L19.0322 5.99992C19.5653 6.00226 20.0101 6.44493 20.0101 6.98999V19.99C20.0101 20.5377 19.5578 20.99 19.0101 20.99H5.04478C5.03289 20.9895 5.02099 20.9891 5.00909 20.989C4.44262 20.9839 4.00008 20.535 4.00008 19.979L4.00012 6.97899L4.00004 6.96999C3.99507 6.41777 4.44389 5.96899 4.99008 5.96899ZM19.006 3.99999L17.02 4C17.02 2.89543 16.1246 2 15.02 2H9.02002C7.9258 2 7.03682 2.87872 7.02026 3.96899H4.99008C3.33791 3.96899 1.98777 5.31755 2.00008 6.98305V19.979C2.00008 21.6303 3.31728 22.9538 4.9534 22.9884C4.97227 22.9895 4.99117 22.99 5.01008 22.99H19.0101C20.6624 22.99 22.0101 21.6423 22.0101 19.99V6.98999C22.0101 5.34116 20.6648 3.98765 19.006 3.99999ZM15.02 4H9.02002V6H15.02V4ZM14.9574 13.5587C15.3479 13.1681 15.3479 12.535 14.9574 12.1445C14.5669 11.7539 13.9337 11.7539 13.5432 12.1445L11.4603 14.2273L10.4874 13.2545C10.0969 12.8639 9.46369 12.8639 9.07317 13.2545C8.68264 13.645 8.68264 14.2781 9.07317 14.6687L10.7532 16.3487C10.9407 16.5362 11.1951 16.6416 11.4603 16.6416C11.7255 16.6416 11.9798 16.5362 12.1674 16.3487L14.9574 13.5587Z" fill="#8596AA"/>
</svg>
