<svg width="24" height="24" viewBox="0 0 24 24" fill="none" xmlns="http://www.w3.org/2000/svg">
<path fill-rule="evenodd" clip-rule="evenodd" d="M17.9999 16.6104L21.7099 20.2904C21.8901 20.4769 21.9909 20.7261 21.9909 20.9854C21.9909 21.2447 21.8901 21.4939 21.7099 21.6804C21.6169 21.7741 21.5063 21.8485 21.3845 21.8993C21.2626 21.9501 21.1319 21.9762 20.9999 21.9762C20.8679 21.9762 20.7372 21.9501 20.6153 21.8993C20.4935 21.8485 20.3829 21.7741 20.2899 21.6804L16.6099 18.0004C14.8143 19.4405 12.5352 20.1379 10.2412 19.9492C7.94721 19.7605 5.81269 18.7001 4.27655 16.9859C2.74041 15.2718 1.91941 13.0342 1.98237 10.7333C2.04534 8.43243 2.98747 6.24311 4.61505 4.61553C6.24263 2.98795 8.43194 2.04582 10.7328 1.98286C13.0337 1.9199 15.2713 2.7409 16.9854 4.27704C18.6996 5.81318 19.76 7.94769 19.9487 10.2417C20.1374 12.5357 19.44 14.8148 17.9999 16.6104ZM4.82679 7.71101C4.28568 8.72311 4.00171 9.85273 3.9999 11.0004C3.99771 12.3919 4.41028 13.7525 5.18494 14.9084C5.9596 16.0643 7.06119 16.9631 8.34905 17.4901C9.6369 18.017 11.0526 18.1482 12.4153 17.8668C13.7781 17.5855 15.0261 16.9043 15.9999 15.9104C16.8031 15.0906 17.3924 14.086 17.716 12.9848C18.0395 11.8837 18.0874 10.7199 17.8553 9.59598C17.6232 8.47202 17.1184 7.42235 16.3852 6.53942C15.652 5.65649 14.7129 4.96738 13.6507 4.53277C12.5886 4.09815 11.4358 3.93137 10.294 4.04711C9.15216 4.16284 8.05631 4.55755 7.10293 5.19647C6.14956 5.83538 5.3679 6.69891 4.82679 7.71101ZM14.5354 7.46483C15.4731 8.40251 15.9999 9.67428 15.9999 11.0004C15.9999 11.2656 15.8945 11.5199 15.707 11.7075C15.5194 11.895 15.2651 12.0004 14.9999 12.0004C14.7347 12.0004 14.4803 11.895 14.2928 11.7075C14.1052 11.5199 13.9999 11.2656 13.9999 11.0004C13.9999 10.2047 13.6838 9.44165 13.1212 8.87905C12.5586 8.31644 11.7955 8.00037 10.9999 8.00037C10.7347 8.00037 10.4803 7.89501 10.2928 7.70747C10.1052 7.51994 9.99988 7.26558 9.99988 7.00037C9.99988 6.73515 10.1052 6.4808 10.2928 6.29326C10.4803 6.10572 10.7347 6.00037 10.9999 6.00037C12.326 6.00037 13.5977 6.52715 14.5354 7.46483Z" fill="#8596AA"/>
</svg>
