<svg width="24" height="24" viewBox="0 0 24 24" fill="none" xmlns="http://www.w3.org/2000/svg">
<path fill-rule="evenodd" clip-rule="evenodd" d="M11.3921 2.62192C11.7792 2.45025 12.2209 2.45025 12.6081 2.62192C12.9324 2.76573 13.1264 3.01148 13.2319 3.15958C13.3344 3.30351 13.4401 3.48509 13.5391 3.65513C13.5446 3.66455 13.55 3.67394 13.5555 3.68329L15.8752 7.66604L20.4117 8.6484C20.604 8.68999 20.8094 8.73441 20.978 8.78743C21.1514 8.84198 21.4451 8.95051 21.6821 9.21455C21.965 9.52972 22.1015 9.94979 22.0578 10.3711C22.0213 10.724 21.8475 10.9844 21.7393 11.1305C21.634 11.2725 21.494 11.4291 21.3629 11.5758L18.2702 15.037L18.7345 19.6226C18.7356 19.6334 18.7367 19.6442 18.7378 19.655C18.7576 19.8508 18.7789 20.0598 18.7805 20.2365C18.7822 20.4183 18.7698 20.7312 18.5919 21.0382C18.3796 21.4046 18.0222 21.6642 17.6081 21.7529C17.2612 21.8272 16.9598 21.7424 16.7874 21.6846C16.6199 21.6284 16.4276 21.5436 16.2476 21.4642L12.0001 19.5925L7.75257 21.4642C7.57254 21.5436 7.38029 21.6284 7.21274 21.6846C7.04036 21.7424 6.73899 21.8272 6.39205 21.7529C5.97792 21.6642 5.62058 21.4046 5.40826 21.0382C5.23039 20.7312 5.21791 20.4183 5.21963 20.2365C5.2213 20.0598 5.24251 19.8508 5.26238 19.655L5.72996 15.037L2.65898 11.6001C2.65178 11.592 2.64454 11.5839 2.63727 11.5758C2.50614 11.4291 2.36611 11.2725 2.26089 11.1305C2.15264 10.9844 1.97886 10.724 1.94231 10.3711C1.89869 9.94979 2.03518 9.52972 2.31809 9.21455C2.55509 8.95051 2.84875 8.84198 3.02219 8.78743C3.19077 8.73441 3.39611 8.68999 3.58841 8.6484C3.59908 8.6461 3.6097 8.6438 3.62027 8.64151L8.12493 7.66604L10.4447 3.68329C10.4501 3.67394 10.4556 3.66455 10.4611 3.65513C10.5601 3.48509 10.6657 3.30351 10.7683 3.15958C10.8737 3.01148 11.0677 2.76573 11.3921 2.62192ZM8.02677 7.83304C8.0267 7.83316 8.0267 7.83315 8.02677 7.83304V7.83304ZM8.31407 7.6243C8.3142 7.62426 8.31421 7.62426 8.31407 7.6243V7.6243ZM5.85845 15.182C5.85853 15.1821 5.85854 15.1821 5.85845 15.182V15.182ZM5.74871 14.8442C5.74871 14.8441 5.74871 14.8441 5.74871 14.8442V14.8442ZM15.6861 7.62429C15.6859 7.62426 15.6859 7.62426 15.6861 7.62429V7.62429ZM12.0001 4.98661L9.8088 8.7488C9.8051 8.75516 9.80087 8.76254 9.79612 8.77084C9.7498 8.8517 9.65409 9.01884 9.5162 9.15921C9.39959 9.27793 9.26404 9.37641 9.1151 9.45063C8.93898 9.53839 8.75045 9.57778 8.65923 9.59683C8.64987 9.59879 8.64154 9.60053 8.63435 9.60208L4.37915 10.5235L7.28007 13.7701C7.28497 13.7756 7.29069 13.7819 7.2971 13.789C7.3597 13.858 7.48908 14.0007 7.57998 14.1752C7.65685 14.3228 7.70863 14.4822 7.73319 14.6468C7.76223 14.8414 7.74142 15.0329 7.73136 15.1255C7.73033 15.135 7.72941 15.1435 7.72867 15.1508L7.29009 19.4825L11.2742 17.7268C11.281 17.7238 11.2887 17.7203 11.2974 17.7164C11.3824 17.6782 11.5581 17.5993 11.7522 17.5667C11.9163 17.5392 12.0839 17.5392 12.248 17.5667C12.442 17.5993 12.6177 17.6782 12.7027 17.7164C12.7114 17.7203 12.7192 17.7238 12.7259 17.7268L16.7101 19.4825L16.2715 15.1508C16.2707 15.1435 16.2698 15.135 16.2688 15.1255C16.2587 15.0329 16.2379 14.8414 16.267 14.6468C16.2915 14.4822 16.3433 14.3228 16.4202 14.1752C16.5111 14.0007 16.6405 13.858 16.703 13.789C16.7095 13.7819 16.7152 13.7756 16.7201 13.7701L19.621 10.5235L15.3658 9.60208C15.3586 9.60053 15.3503 9.59879 15.3409 9.59683C15.2497 9.57778 15.0612 9.53839 14.8851 9.45063C14.7361 9.37641 14.6006 9.27793 14.484 9.15921C14.3461 9.01884 14.2503 8.8517 14.204 8.77084C14.1993 8.76254 14.1951 8.75516 14.1914 8.7488L12.0001 4.98661Z" fill="#8596AA"/>
</svg>
