<svg width="24" height="24" viewBox="0 0 24 24" fill="none" xmlns="http://www.w3.org/2000/svg">
<path fill-rule="evenodd" clip-rule="evenodd" d="M11.514 0.126063C11.8162 -0.0420211 12.1838 -0.0420211 12.486 0.126063L23.05 6.00123C23.5791 6.0273 24 6.4645 24 7V7.1152C24 7.11689 24 7.11859 24 7.12028V11C24 11.5523 23.5523 12 23 12C22.4477 12 22 11.5523 22 11V8.92292L20 10.1743V14.5203C20 15.9324 19.4649 17.2943 18.5 18.3134C16.7967 20.1124 14.6014 21 12 21C9.39862 21 7.20328 20.1124 5.50002 18.3134C4.53515 17.2943 4 15.9324 4 14.5203V10.1743L0.469595 7.96539C0.169666 7.77774 -0.00878103 7.44557 0.000333115 7.09189C0.0094472 6.73821 0.204766 6.41567 0.513962 6.24371L11.514 0.126063ZM12.5304 14.8477L18 11.4256V14.5203C18 15.4295 17.655 16.2969 17.0476 16.9384C15.7539 18.3048 14.1001 19 12 19C9.89994 19 8.24607 18.3048 6.95237 16.9384C6.34504 16.2969 6 15.4295 6 14.5203V11.4256L11.4696 14.8477C11.7941 15.0508 12.2059 15.0508 12.5304 14.8477ZM2.96634 7.16832L12 12.8204L21.0337 7.16832L12 2.14425L2.96634 7.16832Z" fill="#8596AA"/>
</svg>
