<svg width="32" height="32" viewBox="0 0 32 32" fill="none" xmlns="http://www.w3.org/2000/svg">
<path d="M18 17C20.7614 17 23 14.7614 23 12C23 9.23858 20.7614 7 18 7C15.2386 7 13 9.23858 13 12C13 14.7614 15.2386 17 18 17Z" fill="#E5DCF8"/>
<path d="M25 8C26.1046 8 27 7.10457 27 6C27 4.89543 26.1046 4 25 4C23.8954 4 23 4.89543 23 6C23 7.10457 23.8954 8 25 8Z" fill="#E5DCF8"/>
<path d="M8.5 11C10.433 11 12 9.433 12 7.5C12 5.567 10.433 4 8.5 4C6.567 4 5 5.567 5 7.5C5 9.433 6.567 11 8.5 11Z" fill="#E5DCF8"/>
<path d="M8.5 19C9.32843 19 10 18.3284 10 17.5C10 16.6716 9.32843 16 8.5 16C7.67157 16 7 16.6716 7 17.5C7 18.3284 7.67157 19 8.5 19Z" fill="#E5DCF8"/>
<path d="M24.4483 16.3529C23.7533 16.3529 23.374 16.7553 23.374 17.4118V19.5294V16.3529C23.374 15.7512 23.0578 15.2941 22.2997 15.2941C21.6047 15.2941 21.2254 15.6965 21.2254 16.3529V19.5294V15.2941C21.2254 14.6923 20.9093 14.2353 20.1511 14.2353C19.4562 14.2353 19.0769 14.6376 19.0769 15.2941V19.5294V19.4715V11.0588C19.0769 10.4571 18.7607 10 18.0026 10C17.3076 10 16.9283 10.4055 16.9283 11.062V21.6471C16.9283 21.6471 15.854 22.1765 14.7797 21.6471C13.7054 21.1176 11.6206 19.9318 10.4834 20.5882C9.09351 21.4088 10.9247 22.648 13.1355 24.5531C14.7797 25.8824 17.6874 27.6171 21.2254 28C22.2997 28 24.4483 28 25.5225 25.8824C26.5968 23.7647 25.5225 17.4118 25.5225 17.4118C25.5225 17.4118 25.3714 16.3529 24.4483 16.3529Z" fill="#9467F3"/>
</svg>
