<svg width="32" height="32" viewBox="0 0 32 32" fill="none" xmlns="http://www.w3.org/2000/svg">
<path d="M3 10.9072C3 10.1864 3.38789 9.52133 4.01531 9.16643L11.932 4.68831C13.2652 3.93415 14.9167 4.89733 14.9167 6.42911V12.4261C14.9167 13.1469 14.5288 13.812 13.9014 14.1669L5.98469 18.645C4.65144 19.3992 3 18.436 3 16.9042V10.9072Z" fill="#FADEDC"/>
<path d="M15.0287 16.5396C15.6328 16.204 16.3672 16.204 16.9713 16.5396L25.4947 21.2749C26.937 22.0761 26.8434 24.1807 25.3357 24.8508L16.8123 28.639C16.2951 28.8688 15.7049 28.8688 15.1877 28.639L6.66427 24.8508C5.15657 24.1807 5.06299 22.0761 6.50527 21.2749L15.0287 16.5396Z" fill="#FADEDC"/>
<path d="M29 10.9072C29 10.1864 28.6121 9.52133 27.9847 9.16643L20.068 4.68831C18.7348 3.93415 17.0833 4.89733 17.0833 6.42911V12.4261C17.0833 13.1469 17.4712 13.812 18.0986 14.1669L26.0153 18.645C27.3486 19.3992 29 18.436 29 16.9042V10.9072Z" fill="#FADEDC"/>
<circle cx="16" cy="16" r="6" fill="#B43C43"/>
</svg>
