<svg width="18" height="18" viewBox="0 0 18 18" fill="none" xmlns="http://www.w3.org/2000/svg">
<path fill-rule="evenodd" clip-rule="evenodd" d="M13.8427 2.04138C13.8979 1.98621 13.9881 1.98621 14.0432 2.04138L15.9586 3.95688C16.0138 4.01206 16.0138 4.10234 15.9587 4.15756L15.9586 4.15763L14.7628 5.35328C14.7452 5.33258 14.7266 5.31243 14.7071 5.29289L12.7071 3.29289C12.6876 3.27339 12.6675 3.25487 12.6469 3.23731L13.8427 2.04138ZM11.2374 4.6469L2.04198 13.8429L2.04009 13.8448C2.01496 13.8698 2 13.9045 2 13.9427V15.8C2 15.9105 2.08954 16 2.2 16H4.05703C4.09519 16 4.12986 15.9851 4.15485 15.9599L4.1568 15.958L13.3532 6.76272C13.3325 6.74516 13.3124 6.72662 13.2929 6.70711L11.2929 4.70711C11.2734 4.68762 11.2549 4.66754 11.2374 4.6469ZM15.4575 0.627216C14.6213 -0.209072 13.2647 -0.209072 12.4284 0.627216L0.629601 12.4269L0.628608 12.4279C0.22466 12.8302 0 13.3757 0 13.9427V15.8C0 17.015 0.984971 18 2.2 18H4.05703C4.62419 18 5.16972 17.7752 5.57207 17.3711L5.57288 17.3703L17.3728 5.57186L17.3729 5.57179C18.209 4.73554 18.209 3.37896 17.3729 2.54271L15.4575 0.627216Z" fill="white"/>
</svg>
